<?xml version="1.0" encoding="UTF-8"?>
<svg version="1.1" viewBox="0 0 2048 2048" width="3000" height="3000" xmlns="http://www.w3.org/2000/svg">
<path transform="translate(1769,238)" d="m0 0h35l21 3 20 6 20 8 23 12 15 10 17 12 10 8 14 12 12 13 13 17 10 14 12 20 12 23 11 27 8 26 6 29 8 50 4 31 2 29v32l-2 26-5 30-6 25-9 29-9 25-8 16-9 15-13 18-13 16-17 17-15 11-21 11-21 7-24 5-29 4-35 3h-29l-21-3-13-3h-11l-51 11-99 21-45 10-9 15-12 16-11 13-11 11-14 11-14 9-19 9-20 7 1 11 6 18 13 25 13 22 12 20 8 12 9 10 10 1 10 6 12 11 9 13 8 16 6 15 12 39 15 52 12 43 6 26 5 32 2 17v9l-5 4-16 9-16 8-29 14-30 13-24 9-26 7-33 6-33 4-23 2h-7l-5-1 1 11 1 27v28l-2 40-3 29-5 26-7 24-10 25-10 21-12 21-12 16-9 11-12 14-10 10-24 8-30 2h-62l-28-2-35-5-46-10-39-10-19-6-20-8-21-10-16-10-10-9 1-2 25-5 24-5 16-5 9-6 15-14 10-9 11-12 10-15 6-15 8-25 7-29 6-35 3-27 2-45v-43l-3-40-6-47-8-44-7-30-13-49-13-43-14-43-12-31-12-28-9-19v-2l-23-1-21-4-17-6-19-10-17-12-9-7-20 4-50 11-64 12-26 4h-4l2 7 2 16 1 19v67l-4 38-6 36-9 45-8 31-9 31-16 49-11 27-14 29-13 27-15 36-3 8h6l4-1 1 2 15 5 1 4-2 1 1 5v31l-3 20-4 14-9 20-12 23-10 19-18 37-9 14-14 19-13 16-11 14-12 14-9 11-12 11-13 10-16 8-14 3h-20l-18-3-21-7-16-8-22-12-19-12-14-10-17-12-36-26-19-14-21-16-19-14-17-13-18-14-14-11-13-11-11-9-11-10-8-7-12-11-10-9-16-15-31-31-10-13-12-19-8-14v-9l11-18 10-15 13-21 10-16 12-17 11-13 18-22 11-13 9-11 22-26 9-11 12-14 9-11 12-14 6-3 6-1h11l30 4 32 6 2-12 5-41 11-61 8-36 8-28 14-43 9-34 9-41 5-25-6-14-6-23-2-19v-44l3-24 5-20 6-16 12-25 11-19 8-11 9-10 14-14 11-9 10-9 5-4 12-22 10-15 9-12 12-14 15-16 13-11 14-8 13-5 16-3h13l10 3 11 7 6 5 17-8 10-2h17l20 4 13 5 6 4 7 8 1 4 26-7 99-30 4-4 7-11 9-12 9-11 11-11 14-11 13-10 18-11 16-8 17-6 14-3 24-3 21-2 23-3 12-1h33l20 4 11 4 8 5 8 8 8-13 9-10 8-8 17-12 15-9 17-8 10-5 17-12 22-12 18-8 19-6 25-5 20-2 40-1 42-15 45-15 29-8 37-9 82-18 36-10 24-7 13-9 18-10 27-13 22-8 27-6 28-4zm5 15-38 4-24 4-22 6-21 9-28 14-18 12-10 9-8 8-13 17-10 16-12 21-10 21-8 22-8 30-5 24-1 8v33l2 38 12 28 13 37 10 35 4 20 4 36 7 11 13 19 13 18 10 13 9 11 13 16 9 11 13 13 17 13 18 11 16 8 25 8 26 5 23 1 28-2 36-4 26-5 20-6 17-8 16-11 13-12 11-12 12-16 12-18 10-19 10-28 8-25 7-30 4-27 1-13v-48l-3-32-8-54-7-36-7-25-10-25-11-23-12-20-12-17-11-14-11-12-9-9-17-13-17-12-20-12-21-10-24-8-16-3-10-1zm-178 50-36 12-28 7-72 16-35 9-35 10-45 14-8 3 1 2 18 4 18 6 20 9 25 13 24 16 13 10 14 12 19 19 11 14 10 14 12 19h1v-27l2-19 8-36 8-26 8-21 8-17 14-24 8-13 9-12 9-11 1-3zm-313 86-21 2-25 5-21 7-23 11-19 12-16 13-18 18-13 17-11 17-9 16-10 21-9 24-7 25-6 29-4 33-1 18v22l2 24 6 31 8 30 10 30 13 31 16 32 14 24 8 12 10 13 9 10 22 22 11 9 9 8 13 9 23 12 19 9 27 10 16 4 13 2 12 1h24l29-3 24-5 26-8 21-9 16-10 11-9 18-18 12-16 11-18 12-23 9-20 9-25 7-25 5-28 2-24v-59l-2-22-5-27-10-35-10-29-11-27-13-28-11-20-12-19-13-16-9-10-16-16-11-9-16-12-21-13-23-12-25-10-18-5-23-3zm-155 55-17 12-13 11-8 10-8 14-8 16-12 29-8 22-9 31-5 25-3 24-1 34 1 32 3 23 9 39 8 27 9 25 13 28 11 22 12 20 10 14 11 14 11 13 9 10 12 13 8 7 14 12 18 12 17 9 24 9 15 4 7 1h13l1-2-24-10-17-8-12-6-11-6-12-9-13-11-10-9-8-7-15-15-9-11-10-14-13-21-12-22-12-24-13-31-11-33-9-35-5-27-2-24v-26l2-28 4-28 5-24 8-29 10-26 12-25 12-20 12-17 10-12zm-133 26-29 3-31 6-26 7-16 8-12 8-16 13-11 10-7 8-9 10-14 19-13 25-11 29-9 31-5 23-5 32-1 12v31l3 30 4 24 6 23 10 28 10 23 12 24 14 24 10 17 15 24 8 12 9 12 9 10 1 2h2v2l8 7 12 10 18 12 16 9 7 4 3-1-11-13-9-10-14-15-11-15-9-16-8-17-12-34-6-21-6-32-4-30v-48l4-35 5-28 9-35 8-26 9-25 11-22 12-19 10-14 10-13 11-13 9-10 12-13 11-11 11-9 13-8 15-7 13-4 6-1h11l9 2 2-4-1-7-6-7-12-6-17-4-7-1zm-94 10m-3 1-17 7-18 10-19 14-15 13-11 11-11 15-12 18-9 16-7 15-9 24-9 31-5 24-3 22-1 13v45l3 24 7 34 8 26 10 27 12 27 9 19 12 22 12 19 10 14 9 11 18 20 10 9 16 12 15 9 15 7 17 5 14 2-4-3-16-8-12-7-17-12-13-12-13-13-11-14-12-17-10-15-12-20-12-21-12-23-9-19-11-29-7-24-5-25-3-28-1-14v-24l3-30 5-28 7-27 12-36 11-25 10-17 11-14 11-12 7-8 13-12 18-13 22-13 2-2zm155 21-16 4-16 7-11 6-12 9-11 11-2 1v2h-2l-7 8-9 9-9 11-8 9-12 16-13 20-9 16-8 16-12 36-8 29-6 26-5 32-2 21v44l3 25 6 33 7 26 12 33 10 21 9 14 8 10 11 12 13 14 13 17 8 13 9 19 15 36 11 30 16 49 12 42 13 50 8 38 6 38 4 32 2 25 1 19v37l-2 52-3 27-6 34-9 36-10 29-8 15-8 10-7 7v2h-2v2l-4 2-11 11-11 9-8 6-9 4-14 3-43 4v2l18 10 32 14 24 8 48 12 43 9 38 5 33 2h55l24-1 16-5 9-6 9-11 11-13 11-15 11-18 14-27 10-25 6-20 5-22 3-24 2-24 1-21v-40l-2-36-4-38-8-49-9-42-10-38-12-39-13-36-15-36-14-29-14-26-16-27-12-19-13-20-21-31-15-22-11-17-16-26-12-19-9-16-8-17-11-29-4-8-9-15-14-27-9-19h-1v14l4 29 5 24 7 25 7 17 6 10 2 6-29 11-23 7-41 8-31 6h-6l-12-11-11-14-13-24-7-15-7-20-5-27-3-24-1-16v-14l2-16 2-1 18 3 51 3h55l18-1 4-1-3-10-9-31-3-8-30 1h-19l-21-2-43-7h-5l1-33 6-24 9-27 12-25 11-16 10-13 12-14 4-4 3-1 20 1 26 1 3-9 7-25 10-29 11-26 1-5-3-1zm-278 74-59 18-49 14-9 3v11l-5 14-7 14v2l4-2 14-8 9-3h12l15 4 8 4 5 5 5 8 2 8v18l-6 30-8 34-11 37-6 29-4 27-3 37v39l3 40 5 45 4 32 1 3 10-1 67-13 81-17-2-4-12-12-11-14-9-12-11-17-12-21-16-32-13-31-11-31-8-32-4-22-2-16-1-14v-24l2-29 4-26 7-29 12-36 9-21 4-9zm-255 15-14 4-12 6-10 8-10 9-7 7-7 8-13 16-11 17-12 21-8 17-10 28-11 33-14 41-13 41-9 34-10 45-8 39-12 54-9 32-15 47-7 26-7 32-15 85-4 20-6 16-9 17-13 19-6 8 1 4 10 9 11 9 17 14 19 14 18 13 24 16 22 14 29 17 26 14 29 14 30 13 33 13 30 11 26 8 12 3h5l15-38 10-23 12-25 8-17 11-28 12-36 12-40 10-40 12-60 4-29 2-24 1-32v-43l-1-26 1-5-4-2-2-8-5-36-6-55-2-33v-19l2-34 4-32 6-33 7-25 7-24 10-44 3-18-2-14-4-6-8-5-12-3h-7l-10 3-17 11-10 8-7 8-18 37-10 24-10 30-6 26-5 27-6 42-2 21v11l1 10v9l-5 1-3-7-3-20 1-18 7-50 7-36 6-24 9-26 15-33 18-36 11-23 10-21 1-3v-7l-4-9-7-6-17-5-6-1h-24l-11 4-10 6-10 9-11 13-13 18-11 21-16 41-13 38-13 46-12 48-5 19-2 4h-3l-1-6 6-36 9-42 12-43 12-36 15-38 8-16 7-12 11-14 11-13 2-4-8-6-6-3zm-115 102m-1 1-12 11-22 22-10 14-14 25-10 21-7 21-4 18-2 23v38l2 21 6 23 1 3h2l12-54 8-31 11-36 13-40 15-43 10-29 2-4zm1180 40-1 10-1 25-3 27-5 25-8 27-10 26-12 26-1 3 10-1 85-19 77-17 3-2-16-8-14-8-16-11-11-9-12-11-7-8-14-17-11-14-14-18-14-20-4-6zm-472 187 3 9 11 21 14 22 15 23 12 19 12 17 11 16 15 22 19 29 13 21 14 24 14 26 11 23 5-2 9-4 87-24 40-12 33-11 28-11-2-4-8-10-12-19-17-28-10-17-7-14-5-15-2-13-2-1-23 5-24 3h-44l-21-3-21-6-20 4h-15l-21-6-19-7-16-8-16-10-11-9-14-12-20-20-7-8-8-10z" fill="#FDFDFD"/>
<path transform="translate(187,1254)" d="m0 0h11l30 4 31 6 2 1-1 3-10-1-43-5h-16l-9 2 3 7 7 9 6 7 8 7 12 12 11 9 8 8 11 9 14 12 14 11 13 10 18 13 23 16 19 12 21 13 21 12 24 13 29 14 30 13 33 13 30 11 26 8 25 6 10 1 4-1 1 2 15 5 1 4-2 1 1 5v31l-3 20-4 14-9 20-12 23-10 19-18 37-9 14-14 19-13 16-11 14-12 14-9 11-12 11-13 10-16 8-14 3h-20l-18-3-21-7-16-8-22-12-19-12-14-10-17-12-36-26-19-14-21-16-19-14-17-13-18-14-14-11-13-11-11-9-11-10-8-7-12-11-10-9-16-15-31-31-10-13-12-19-8-14v-9l11-18 10-15 13-21 10-16 12-17 11-13 18-22 11-13 9-11 22-26 9-11 12-14 9-11 12-14 6-3z" fill="#B2A8C4"/>
<path transform="translate(1331,417)" d="m0 0h14l21 3 16 5 16 7 16 9 17 12 13 11 10 9 18 18 9 11 12 15 11 17 10 18 8 17 10 27 9 31 6 33 3 25 1 13v48l-2 21-4 23-5 20-7 21-10 22-11 19-10 14-9 11-11 12-12 11-15 11-17 10-15 6-22 5-24 3h-16l-24-6-26-8-28-11-15-8-16-11-10-8-10-9-10-10-11-14-10-14-11-17-10-18-8-17-11-30-9-32-5-23-3-19-2-31 1-24 2-24 5-28 9-34 8-22 12-23 12-18 9-11 12-13 10-9 11-9 17-13 17-9 27-9 20-4z" fill="#FEFEFE"/>
<path transform="translate(1770,284)" d="m0 0h39l20 3 22 6 18 8 18 10 13 10 15 14 7 8 13 16 14 19 14 24 9 20 10 27 12 36 6 25 5 30 4 31 1 11v30l-3 26-5 23-9 29-14 36-8 17-10 14-11 13-11 12-8 7-17 13-16 9-16 6-16 3-25 2-25-1-20-2-25-10-16-8-11-6-14-10-10-9-8-7-11-10-7-8-12-13-11-14-12-17-10-17-8-16-10-25-7-24-5-27-4-34-2-30v-16l2-30 5-32 6-27 6-20 11-26 10-18 11-17 11-13 10-10 11-9 10-8 14-9 17-8 19-5z" fill="#FEFEFE"/>
<path transform="translate(1490,1123)" d="m0 0 9 1 10 6 12 11 9 13 8 16 6 15 12 39 15 52 12 43 6 26 5 32 2 17v9l-5 4-16 9-16 8-29 14-30 13-24 9-26 7-33 6-33 4-23 2h-7l-9-2-1-5h5l-2-16-4-31-7-41-8-37-10-39-14-45-12-33-12-29-1-4h-2l1-5 6-4 35-10 65-18 46-14 25-9 33-13z" fill="#B2A8C4"/>
<path transform="translate(1090,1532)" d="m0 0 8 1 23 7 10 2 10 1 29 1 30 3 40 5h22l16-3h3v-6l2 3 1 14v18l-2 25-5 30-9 35-10 30-8 17-10 13-11 12-14 14-3 2-29 2h-27l-28-2-38-5-31-6-24-6-24-10-7-3 1-3 14-10 12-11 10-15 14-26 11-25 9-25 7-25 5-23z" fill="#FDFCFD"/>
<path transform="translate(1192,1248)" d="m0 0h68l7 14 7 30 6 33 10 69 3 23v29l-2 18-4 2h-72l-33-2-56-7-19-2 1-24v-55l-3-26-7-33-7-28-5-13-5-11 11-4 30-6 40-5z" fill="#FDFDFD"/>
<path transform="translate(1123,1009)" d="m0 0 3 1 16 23 14 20 16 23 16 24 10 16 10 21 9 24 1 5-6 2-56 14-44 12-28 6h-12l-4-10-11-30-15-35-15-32-12-21-13-19-13-18-2-5 1-1 51-2 37-5 23-5z" fill="#FCFCFD"/>
<path transform="translate(187,1254)" d="m0 0h11l30 4 31 6 2 1-1 3-10-1-43-5h-16l-9 2 3 7 7 9 6 7 8 7 12 12 11 9 8 8 11 9 14 12 14 11 13 10 18 13 23 16 19 12 21 13 21 12 24 13 29 14 30 13 33 13 30 11 26 8 25 6 10 1 4-1 1 2 15 5 1 4-2 1 1 5v31l-3 20-4 14-9 20-12 23-10 19-18 37-9 14-14 19-13 16-11 14-12 14-9 11-12 11-13 10-16 8-14 3h-20l-18-3-21-7-16-8-22-12-19-12-14-10-17-12-36-26-19-14-21-16-19-14-17-13-18-14-14-11-13-11-11-9-11-10-8-7-12-11-10-9-16-15-31-31-10-13-12-19-8-14v-9l11-18 10-15 13-21 10-16 12-17 11-13 18-22 11-13 9-11 22-26 9-11 12-14 9-11 12-14 6-3zm-13 18-12 14-9 11-11 13-9 11-11 13-27 33-14 17-12 15-13 18-28 44-14 21 1 6 10 17 12 17 9 10 11 12 7 7 8 7 14 14 8 7 15 14 8 7 14 12 15 13 14 11 15 12 13 10 21 16 36 27 19 14 54 39 21 14 24 14 15 8 18 7 19 4 9 1h11l16-3 12-6 13-10 14-13 11-14 14-17 11-14 14-18 10-15 9-16 16-34 13-23 12-24 7-21 3-22v-26l-5-5-8-2-29-5-25-6-37-13-33-13-35-15-35-17-24-13-25-15-22-14-25-17-18-13-12-9-14-11-11-9-11-10-8-7-10-9-15-14-16-16-9-11-7-10z" fill="#030303"/>
<path transform="translate(1490,1123)" d="m0 0 9 1 10 6 12 11 9 13 8 16 6 15 12 39 15 52 12 43 6 26 5 32 2 17v9l-5 4-16 9-16 8-29 14-30 13-24 9-26 7-33 6-33 4-23 2h-7l-9-2-1-4 45-5 37-6 28-6 36-12 23-10 24-11 44-22 5-2-5-38-5-26-12-47-20-71-10-33-6-15-9-17-8-10-10-9-6-1-25 11-26 10-27 9-35 10-72 19-27 7-6-1 1-5 6-4 35-10 65-18 46-14 25-9 33-13z" fill="#030303"/>
<path transform="translate(191,1261)" d="m0 0h16l43 5 8 2-3 10-11 22-10 16-2 3-12-11-8-7-24-24-6-9-1-4 3-2z" fill="#B2A8C4"/>
<path transform="translate(1090,1532)" d="m0 0 8 1 23 7 10 2 10 1 29 1 30 3 40 5h22l16-3h3v-6l2 3 1 14v18l-2 25-5 30-9 35-10 30-8 17-10 13-11 12-14 14-3 2-29 2h-27l-28-2-38-5-31-6-24-6-24-10-7-3 1-3 14-10 12-11 10-15 14-26 11-25 9-25 7-25 5-23zm1 2-2 27-4 22-8 30-9 25-13 29-13 24-10 14-10 9-14 10 3 3 16 7 16 5 23 5 41 7 29 3 16 1h41l17-1 8-7 15-15 11-14 8-14 9-24 9-31 7-30 3-22 2-24v-22l-2-1-16 4h-29l-58-7-40-2-18-3-25-8z" fill="#0C0B0D"/>
<path transform="translate(1192,1248)" d="m0 0h68l7 14 7 30 6 33 10 69 3 23v29l-2 18-4 2h-72l-33-2-56-7-19-2 1-24v-55l-3-26-7-33-7-28-5-13-5-11 11-4 30-6 40-5zm4 2-35 2-32 4-30 5-15 4 1 5 6 12 7 25 7 30 4 21 2 22v41l-1 20v13l17 1 49 6 27 2 27 1h57l1-1 2-18v-26l-6-47-10-66-7-35-6-18-2-3z" fill="#080809"/>
<path transform="translate(1123,1009)" d="m0 0 3 1 16 23 14 20 16 23 16 24 10 16 10 21 9 24 1 5-6 2-56 14-44 12-28 6h-12l-4-10-11-30-15-35-15-32-12-21-13-19-13-18-2-5 1-1 51-2 37-5 23-5zm-2 3-25 8-25 5-31 4-50 2 2 4 13 18 16 24 13 24 16 35 11 27 12 34 1 1 9-1 37-8 49-13 44-11 1-3-10-26-9-19-13-21-32-47-13-19-11-16-2-2z" fill="#0B0A0C"/>
<path transform="translate(1079,1602)" d="m0 0 1 4-9 27-10 23-8 17-12 21-9 12-10 9-13 9 4 3 19 8 28 7 47 8 29 3 16 1h58v2l-27 2h-27l-28-2-38-5-31-6-24-6-24-10-7-3 1-3 14-10 12-11 10-15 14-26 11-25 9-25z" fill="#0B0B0D"/>
<path transform="translate(903,804)" d="m0 0 19 3 51 3h55l24-1v2l-4 1-20 1h-54l-55-4-15-3-1 15v16l3 32 4 25 6 21 9 21 10 19 10 15 12 14h-3l-9-9-10-13-13-24-7-15-7-20-5-27-3-24-1-16v-14l2-16z" fill="#0D0C0E"/>
<path transform="translate(1192,1248)" d="m0 0h5l-1 3-35 2-32 4-30 5-15 3 8 17 7 25 7 30 4 21 2 22v41l-1 20v12l16 1 15 2 1 3-36-4 1-24v-55l-3-26-7-33-7-28-5-13-5-11 11-4 30-6 40-5z" fill="#0B0A0C"/>
<path transform="translate(985,594)" d="m0 0 20 1 19 1 7 1-2 2-29-2h-16l-3 1-2 4-10 11-15 20-9 15-8 16-9 25-7 26-2 16v19l38 6 17 2 24 1 45-2v2l-16 2-22 1h-19l-21-2-43-7-5-1v-33l6-24 9-27 12-25 11-16 10-13 12-14 5-5z" fill="#0A090B"/>
<path transform="translate(1090,1532)" d="m0 0 8 1 23 7 10 2 10 1 29 1 30 3 40 5h22l15-2v2l-13 3h-29l-58-7-40-2-18-3-28-9v16l-3 24-7 28-3 1 4-17 5-23z" fill="#0D0C0F"/>
<path transform="translate(1143,1457)" d="m0 0 15 1 29 3 43 2 56 1v2h-71l-33-2-33-4-6-1z" fill="#070708"/>
<path transform="translate(985,594)" d="m0 0 20 1 19 1 7 1-2 2-29-2h-16l-3 1-2 4-10 11-15 20-9 15-8 16-9 25-3 1 3-11 8-20 10-19 12-17 11-14 12-13z" fill="#080709"/>
<path transform="translate(1055,821)" d="m0 0h2l4 40 5 28 8 30 6 16 8 14-1 3-9-16-5-11-9-30-5-24-3-22-1-11z" fill="#09090A"/>
<path transform="translate(919,807)" d="m0 0 54 3h55l24-1v2l-4 1-20 1h-54l-55-4z" fill="#151317"/>
<path transform="translate(1088,952)" d="m0 0 2 3-11 5-28 10-23 6-63 12h-6l-2-3 6 1 34-7 35-7 19-5 23-8 13-5z" fill="#0E0D10"/>
<path transform="translate(1105,1015)" d="m0 0 2 1-1 2-19 5-30 5-8 1h-9l-1-2 37-5 23-5z" fill="#121113"/>
<path transform="translate(1192,1248)" d="m0 0h5l-1 3-35 2-25 3h-7v-2l44-5z" fill="#121114"/>
<path transform="translate(1039,757)" d="m0 0h4v2l-16 2-22 1h-19v-1l12-1 1-1z" fill="#211F25"/>
<path transform="translate(926,689)" d="m0 0 1 3-7 28-2 28h-1v-29l6-24z" fill="#060607"/>
<path transform="translate(1046,809)" d="m0 0h6v2l-4 1-20 1h-25l1-2z"/>
<path transform="translate(985,594)" d="m0 0 20 1 19 1 7 1-2 2-29-2h-16l-4 1 2-3z" fill="#17161A"/>
<path transform="translate(939,655)" d="m0 0 1 3-8 19-4 12-3 1 3-11 8-20z" fill="#0B0B0D"/>
<path transform="translate(1084,1578)" d="m0 0h2l-1 9-4 15-3 1 4-17z" fill="#161518"/>
<path transform="translate(1192,1248)" d="m0 0h5l-1 3h-22l-1-2z" fill="#151417"/>
<path transform="translate(980,598)" d="m0 0v3l-7 7-8 10h-2l2-4 9-11z" fill="#111013"/>
<path transform="translate(1120,1454)" d="m0 0 14 1 8 1 1 3-23-3z" fill="#0E0D10"/>
<path transform="translate(1088,952)" d="m0 0 2 3-11 5-14 5 1-3 21-8z" fill="#151418"/>
<path transform="translate(1046,809)" d="m0 0h6v2l-4 1h-19l-1-2z" fill="#151418"/>
<path transform="translate(1105,1015)" d="m0 0 2 1-1 2-14 4h-5v-2z" fill="#141316"/>
<path transform="translate(917,748)" d="m0 0h2v2l14 2v3l-16-3z" fill="#131215"/>
<path transform="translate(985,594)" d="m0 0h8l7 1v1l-16 1-4 1 2-3z" fill="#2B282F"/>
<path transform="translate(931,674)" d="m0 0 1 3-4 12-3 1 3-11z" fill="#19181C"/>
<path transform="translate(1281,1543)" d="m0 0 2 3v19h-1l-1-14-4-1 4-1z" fill="#050505"/>
<path transform="translate(1082,1021)" d="m0 0h5v2l-10 2h-6l1-2z" fill="#0A0A0B"/>
<path transform="translate(1041,970)" d="m0 0m-5 1h5v2l-14 3 1-3z" fill="#111013"/>
<path transform="translate(1122,1255)" d="m0 0h7v2l-13 1v-2z" fill="#0D0C0E"/>
</svg>
